<svg width="1275" height="85.402" viewBox="0 0 1275 85.402" xmlns="http://www.w3.org/2000/svg">
    <g id="svgGroup" stroke-linecap="round" fill-rule="evenodd" font-size="9pt" stroke="#ffffff"
        stroke-width="0.25mm" fill="#ffffff" style="stroke:#ffffff;stroke-width:0.25mm;fill:#ffffff">
        <path
            d="M 660.1 23.601 L 656.1 45.901 A 27.882 27.882 0 0 0 655.777 48.393 A 22.096 22.096 0 0 0 655.7 50.201 Q 655.7 54.901 657.8 57.451 A 6.861 6.861 0 0 0 662.577 59.949 A 9.817 9.817 0 0 0 663.6 60.001 Q 667.6 60.001 670.6 57.151 Q 673.267 54.617 674.946 50.267 A 29.136 29.136 0 0 0 675.35 49.151 A 31.778 31.778 0 0 0 676.715 43.241 A 43.695 43.695 0 0 0 677.1 37.301 A 44.985 44.985 0 0 0 676.188 28.039 A 34.527 34.527 0 0 0 672.95 18.951 Q 668.8 11.101 661.45 6.751 A 31.165 31.165 0 0 0 649.245 2.69 A 39.571 39.571 0 0 0 644.4 2.401 A 38.669 38.669 0 0 0 632.804 4.107 A 35.574 35.574 0 0 0 629.2 5.451 Q 622.2 8.501 617.05 14.051 A 39.28 39.28 0 0 0 609.427 26.186 A 45.006 45.006 0 0 0 609.05 27.151 A 44.571 44.571 0 0 0 606.381 39.258 A 53.602 53.602 0 0 0 606.2 43.701 A 46.356 46.356 0 0 0 607.299 54.01 A 36.286 36.286 0 0 0 611.2 64.101 Q 616.2 72.801 625.25 77.601 A 40.635 40.635 0 0 0 638.097 81.781 A 53.587 53.587 0 0 0 646.4 82.401 A 48.784 48.784 0 0 0 657.439 81.19 A 42.133 42.133 0 0 0 663.5 79.301 A 46.673 46.673 0 0 0 672.621 74.386 A 60.521 60.521 0 0 0 678.7 69.601 L 679.9 70.901 Q 672.3 78.501 664.05 81.951 Q 655.8 85.401 645.1 85.401 A 61.83 61.83 0 0 1 633.306 84.328 A 46.16 46.16 0 0 1 621.4 80.351 Q 611.3 75.301 605.75 66.051 Q 600.2 56.801 600.2 44.301 A 48.879 48.879 0 0 1 601.621 32.347 A 42.976 42.976 0 0 1 603.5 26.601 Q 606.8 18.501 612.75 12.551 Q 618.7 6.601 626.8 3.301 Q 634.9 0.001 644.6 0.001 A 48.669 48.669 0 0 1 654.639 0.99 A 36.948 36.948 0 0 1 664.45 4.501 Q 672.9 9.001 677.6 17.051 A 34.109 34.109 0 0 1 681.794 29.155 A 44.739 44.739 0 0 1 682.3 36.001 A 42.584 42.584 0 0 1 681.751 43.001 A 31.847 31.847 0 0 1 679.8 49.951 A 26.756 26.756 0 0 1 677.05 55.051 A 20.601 20.601 0 0 1 672.95 59.451 Q 668.6 62.901 662.8 62.901 A 14.163 14.163 0 0 1 658.503 62.301 Q 652.729 60.464 651.9 53.001 L 651.3 53.001 A 18.822 18.822 0 0 1 649.225 56.829 A 14.21 14.21 0 0 1 645.6 60.401 A 14.623 14.623 0 0 1 638.428 62.846 A 18.226 18.226 0 0 1 637 62.901 A 16.592 16.592 0 0 1 631.839 62.133 A 13.535 13.535 0 0 1 625.9 58.251 A 15.739 15.739 0 0 1 622.291 51.208 Q 621.7 48.726 621.7 45.801 Q 621.7 40.501 623.65 35.751 Q 625.6 31.001 629.1 27.301 Q 632.6 23.601 637.1 21.501 Q 641.6 19.401 646.7 19.401 Q 650.5 19.401 654.05 20.501 A 20.334 20.334 0 0 1 657.526 21.924 A 16.22 16.22 0 0 1 660.1 23.601 Z M 846.2 7.701 L 853.4 7.701 L 853.4 77.701 L 846.6 77.701 L 846.6 13.501 L 846 13.501 L 821.8 59.901 L 818.7 59.901 L 791.2 19.001 L 790.6 19.001 L 792.8 77.701 L 786 77.701 L 788.5 6.301 L 790.5 6.301 L 822 53.101 L 822.6 53.101 L 846.2 7.701 Z M 1267.8 7.701 L 1275 7.701 L 1275 77.701 L 1268.2 77.701 L 1268.2 13.501 L 1267.6 13.501 L 1243.4 59.901 L 1240.3 59.901 L 1212.8 19.001 L 1212.2 19.001 L 1214.4 77.701 L 1207.6 77.701 L 1210.1 6.301 L 1212.1 6.301 L 1243.6 53.101 L 1244.2 53.101 L 1267.8 7.701 Z M 368.9 77.701 L 362.1 77.701 L 364.6 6.301 L 365.8 6.301 L 416.1 67.101 L 416.7 67.101 L 414.5 7.701 L 421.3 7.701 L 418.8 79.101 L 417.6 79.101 L 367.3 18.301 L 366.7 18.301 L 368.9 77.701 Z M 757.7 44.501 L 739.2 44.501 L 739.2 42.101 L 764.5 42.101 L 764.5 69.301 A 31.408 31.408 0 0 1 755.672 75.455 A 37.367 37.367 0 0 1 753.25 76.501 A 37.674 37.674 0 0 1 743.854 78.794 A 47.096 47.096 0 0 1 738.4 79.101 A 44.879 44.879 0 0 1 727.95 77.92 A 39.104 39.104 0 0 1 722.9 76.351 Q 715.8 73.601 710.5 68.651 Q 705.2 63.701 702.25 57.101 A 34.325 34.325 0 0 1 699.346 44.632 A 40.108 40.108 0 0 1 699.3 42.701 A 36.07 36.07 0 0 1 700.807 32.162 A 32.856 32.856 0 0 1 702.25 28.301 Q 705.2 21.701 710.5 16.751 Q 715.8 11.801 722.9 9.051 Q 730 6.301 738.4 6.301 Q 742 6.301 746.25 6.801 Q 750.5 7.301 754.4 8.151 Q 757.576 8.843 759.957 9.768 A 23.654 23.654 0 0 1 761 10.201 L 760.5 15.801 L 759.9 15.801 A 25.922 25.922 0 0 0 752.673 11.37 A 31.108 31.108 0 0 0 750.3 10.501 A 38.236 38.236 0 0 0 739.624 8.718 A 43.401 43.401 0 0 0 738.4 8.701 Q 729 8.701 721.9 12.951 Q 714.8 17.201 710.85 24.851 A 34.879 34.879 0 0 0 707.455 35.409 A 46.061 46.061 0 0 0 706.9 42.701 A 44.649 44.649 0 0 0 707.768 51.703 A 34.189 34.189 0 0 0 710.85 60.551 Q 714.8 68.201 721.9 72.451 A 29.891 29.891 0 0 0 733.706 76.418 A 38.003 38.003 0 0 0 738.4 76.701 Q 744.2 76.701 749.15 75.101 Q 754.1 73.501 757.7 70.501 L 757.7 44.501 Z M 6.8 77.701 L 0 77.701 L 0 7.701 L 6.8 7.701 L 6.8 40.101 L 48.8 40.101 L 48.8 7.701 L 55.6 7.701 L 55.6 77.701 L 48.8 77.701 L 48.8 42.501 L 6.8 42.501 L 6.8 77.701 Z M 1101.7 69.101 L 1102.3 69.101 L 1101.7 75.201 Q 1098.9 76.401 1094.9 77.301 Q 1090.9 78.201 1086.8 78.651 Q 1083.132 79.053 1080.185 79.096 A 47.569 47.569 0 0 1 1079.5 79.101 A 41.875 41.875 0 0 1 1068.93 77.801 A 37.277 37.277 0 0 1 1064.5 76.351 Q 1057.6 73.601 1052.45 68.701 Q 1047.3 63.801 1044.4 57.151 A 35.27 35.27 0 0 1 1041.535 44.393 A 40.981 40.981 0 0 1 1041.5 42.701 A 36.815 36.815 0 0 1 1043.064 31.865 A 33.759 33.759 0 0 1 1044.4 28.251 Q 1047.3 21.601 1052.45 16.701 Q 1057.6 11.801 1064.5 9.051 Q 1071.4 6.301 1079.5 6.301 Q 1082.694 6.301 1086.637 6.769 A 84.574 84.574 0 0 1 1086.9 6.801 Q 1091 7.301 1094.9 8.151 Q 1098.8 9.001 1101.5 10.101 L 1101 15.701 L 1100.4 15.701 A 22.654 22.654 0 0 0 1094.88 12.001 A 29.283 29.283 0 0 0 1091.1 10.501 Q 1085.5 8.701 1079.5 8.701 A 32.298 32.298 0 0 0 1070.544 9.9 A 27.322 27.322 0 0 0 1063.65 12.951 A 28.814 28.814 0 0 0 1053.318 24.141 A 34.385 34.385 0 0 0 1052.95 24.851 A 35.459 35.459 0 0 0 1049.664 35.265 A 47.108 47.108 0 0 0 1049.1 42.701 A 46.493 46.493 0 0 0 1049.89 51.481 A 34.465 34.465 0 0 0 1052.95 60.601 A 30.057 30.057 0 0 0 1059.73 69.55 A 28.362 28.362 0 0 0 1063.6 72.451 Q 1070.4 76.701 1079.5 76.701 A 37.008 37.008 0 0 0 1088.689 75.589 A 33.075 33.075 0 0 0 1092.15 74.501 A 38.863 38.863 0 0 0 1096.819 72.405 Q 1099.169 71.146 1101.028 69.659 A 22.732 22.732 0 0 0 1101.7 69.101 Z M 342.6 77.701 L 311.8 77.701 L 311.8 7.701 L 342.3 7.701 L 342.3 12.601 L 324.8 10.301 A 165.991 165.991 0 0 0 322.931 10.067 Q 320.392 9.765 319.096 9.712 A 12.242 12.242 0 0 0 318.6 9.701 L 318.6 40.201 A 22.288 22.288 0 0 0 319.214 40.19 Q 320.819 40.145 324.8 39.901 L 341.2 38.901 L 341.2 43.501 L 324.8 42.501 A 488.985 488.985 0 0 0 323.089 42.399 Q 319.656 42.201 318.6 42.201 L 318.6 75.701 A 17.975 17.975 0 0 0 319.664 75.664 Q 321.436 75.556 324.595 75.141 A 167.949 167.949 0 0 0 324.9 75.101 L 342.6 72.801 L 342.6 77.701 Z M 569 58.101 L 537.8 58.101 L 537.8 56.101 L 564.4 7.701 L 572 7.701 L 540.8 55.701 L 569 55.701 L 569 34.701 L 575.6 34.701 L 575.6 55.701 L 587.8 55.701 L 587.8 58.101 L 575.6 58.101 L 575.6 77.701 L 569 77.701 L 569 58.101 Z M 164.3 75.501 L 164.9 69.501 L 165.5 69.501 Q 169.4 72.901 174.3 74.801 Q 179.2 76.701 184 76.701 A 20.069 20.069 0 0 0 188.825 76.151 A 14.241 14.241 0 0 0 195 72.951 A 12.368 12.368 0 0 0 199.107 64.715 A 17.323 17.323 0 0 0 199.2 62.901 Q 199.2 59.401 197.65 56.401 A 16.084 16.084 0 0 0 195.986 53.852 Q 195.078 52.698 193.882 51.529 A 32.409 32.409 0 0 0 192.55 50.301 A 42.037 42.037 0 0 0 189.656 48.008 Q 186.772 45.907 182.8 43.601 Q 178.5 41.101 174.6 38.351 A 26.113 26.113 0 0 1 169.538 33.72 A 23.718 23.718 0 0 1 168.2 31.951 A 14.192 14.192 0 0 1 165.887 25.881 A 18.628 18.628 0 0 1 165.7 23.201 A 16.999 16.999 0 0 1 166.715 17.214 A 14.986 14.986 0 0 1 171.2 10.951 A 18.995 18.995 0 0 1 179.203 7.01 Q 181.998 6.345 185.263 6.304 A 34.347 34.347 0 0 1 185.7 6.301 A 43.152 43.152 0 0 1 190.662 6.6 A 54.649 54.649 0 0 1 194.3 7.151 A 43.251 43.251 0 0 1 196.97 7.726 Q 199.546 8.373 201.226 9.212 A 11.963 11.963 0 0 1 201.4 9.301 L 200.9 14.901 L 200.3 14.901 Q 194.6 8.701 185.7 8.701 Q 179.933 8.701 176.196 11.34 A 12.557 12.557 0 0 0 175.4 11.951 Q 171.5 15.201 171.5 20.701 A 13.074 13.074 0 0 0 172.004 24.403 A 10.821 10.821 0 0 0 173.65 27.751 A 21.532 21.532 0 0 0 177.197 31.523 A 26.312 26.312 0 0 0 179.2 33.051 Q 182.6 35.401 186.5 37.601 Q 191 40.201 195.25 43.101 Q 199.5 46.001 202.25 50.051 Q 204.927 53.994 204.998 59.881 A 26.704 26.704 0 0 1 205 60.201 A 20.424 20.424 0 0 1 204.288 65.693 A 17.07 17.07 0 0 1 202.4 70.051 A 17.653 17.653 0 0 1 195.635 76.394 A 21.212 21.212 0 0 1 195.05 76.701 Q 190.3 79.101 184 79.101 Q 180.742 79.101 176.556 78.437 A 76.453 76.453 0 0 1 174.6 78.101 A 81.154 81.154 0 0 1 165.533 75.891 A 74.024 74.024 0 0 1 164.3 75.501 Z M 218.6 75.501 L 219.2 69.501 L 219.8 69.501 Q 223.7 72.901 228.6 74.801 Q 233.5 76.701 238.3 76.701 A 20.069 20.069 0 0 0 243.125 76.151 A 14.241 14.241 0 0 0 249.3 72.951 A 12.368 12.368 0 0 0 253.407 64.715 A 17.323 17.323 0 0 0 253.5 62.901 Q 253.5 59.401 251.95 56.401 A 16.084 16.084 0 0 0 250.286 53.852 Q 249.378 52.698 248.182 51.529 A 32.409 32.409 0 0 0 246.85 50.301 A 42.037 42.037 0 0 0 243.956 48.008 Q 241.072 45.907 237.1 43.601 Q 232.8 41.101 228.9 38.351 A 26.113 26.113 0 0 1 223.838 33.72 A 23.718 23.718 0 0 1 222.5 31.951 A 14.192 14.192 0 0 1 220.187 25.881 A 18.628 18.628 0 0 1 220 23.201 A 16.999 16.999 0 0 1 221.015 17.214 A 14.986 14.986 0 0 1 225.5 10.951 A 18.995 18.995 0 0 1 233.503 7.01 Q 236.298 6.345 239.563 6.304 A 34.347 34.347 0 0 1 240 6.301 A 43.152 43.152 0 0 1 244.962 6.6 A 54.649 54.649 0 0 1 248.6 7.151 A 43.251 43.251 0 0 1 251.27 7.726 Q 253.846 8.373 255.526 9.212 A 11.963 11.963 0 0 1 255.7 9.301 L 255.2 14.901 L 254.6 14.901 Q 248.9 8.701 240 8.701 Q 234.233 8.701 230.496 11.34 A 12.557 12.557 0 0 0 229.7 11.951 Q 225.8 15.201 225.8 20.701 A 13.074 13.074 0 0 0 226.304 24.403 A 10.821 10.821 0 0 0 227.95 27.751 A 21.532 21.532 0 0 0 231.497 31.523 A 26.312 26.312 0 0 0 233.5 33.051 Q 236.9 35.401 240.8 37.601 Q 245.3 40.201 249.55 43.101 Q 253.8 46.001 256.55 50.051 Q 259.227 53.994 259.298 59.881 A 26.704 26.704 0 0 1 259.3 60.201 A 20.424 20.424 0 0 1 258.588 65.693 A 17.07 17.07 0 0 1 256.7 70.051 A 17.653 17.653 0 0 1 249.935 76.394 A 21.212 21.212 0 0 1 249.35 76.701 Q 244.6 79.101 238.3 79.101 Q 235.042 79.101 230.856 78.437 A 76.453 76.453 0 0 1 228.9 78.101 A 81.154 81.154 0 0 1 219.833 75.891 A 74.024 74.024 0 0 1 218.6 75.501 Z M 876.3 77.701 L 869 77.701 L 895.9 7.701 L 902.1 7.701 L 929 77.701 L 921.7 77.701 L 909.3 44.901 L 886.6 44.901 L 876.3 77.701 Z M 78.278 31.31 A 37.997 37.997 0 0 0 76.6 42.701 A 42.319 42.319 0 0 0 76.624 44.135 A 36.774 36.774 0 0 0 79.35 57.051 Q 82.1 63.701 87.05 68.651 Q 92 73.601 98.65 76.351 A 35.191 35.191 0 0 0 101.61 77.422 A 37.997 37.997 0 0 0 113 79.101 A 42.319 42.319 0 0 0 114.435 79.077 A 36.774 36.774 0 0 0 127.35 76.351 Q 134 73.601 138.95 68.651 Q 143.9 63.701 146.65 57.051 A 35.191 35.191 0 0 0 147.722 54.091 A 37.997 37.997 0 0 0 149.4 42.701 A 42.319 42.319 0 0 0 149.376 41.266 A 36.774 36.774 0 0 0 146.65 28.351 Q 143.9 21.701 138.95 16.751 Q 134 11.801 127.35 9.051 A 35.191 35.191 0 0 0 124.39 7.979 A 37.997 37.997 0 0 0 113 6.301 A 42.319 42.319 0 0 0 111.565 6.325 A 36.774 36.774 0 0 0 98.65 9.051 Q 92 11.801 87.05 16.751 Q 82.1 21.701 79.35 28.351 A 35.191 35.191 0 0 0 78.278 31.31 Z M 1116.978 31.31 A 37.997 37.997 0 0 0 1115.3 42.701 A 42.319 42.319 0 0 0 1115.324 44.135 A 36.774 36.774 0 0 0 1118.05 57.051 Q 1120.8 63.701 1125.75 68.651 Q 1130.7 73.601 1137.35 76.351 A 35.191 35.191 0 0 0 1140.31 77.422 A 37.997 37.997 0 0 0 1151.7 79.101 A 42.319 42.319 0 0 0 1153.135 79.077 A 36.774 36.774 0 0 0 1166.05 76.351 Q 1172.7 73.601 1177.65 68.651 Q 1182.6 63.701 1185.35 57.051 A 35.191 35.191 0 0 0 1186.422 54.091 A 37.997 37.997 0 0 0 1188.1 42.701 A 42.319 42.319 0 0 0 1188.076 41.266 A 36.774 36.774 0 0 0 1185.35 28.351 Q 1182.6 21.701 1177.65 16.751 Q 1172.7 11.801 1166.05 9.051 A 35.191 35.191 0 0 0 1163.09 7.979 A 37.997 37.997 0 0 0 1151.7 6.301 A 42.319 42.319 0 0 0 1150.265 6.325 A 36.774 36.774 0 0 0 1137.35 9.051 Q 1130.7 11.801 1125.75 16.751 Q 1120.8 21.701 1118.05 28.351 A 35.191 35.191 0 0 0 1116.978 31.31 Z M 978 77.701 L 978 7.701 L 984.8 7.701 L 984.8 75.701 Q 986.232 75.701 988.915 75.36 A 101.183 101.183 0 0 0 990.8 75.101 L 1007.4 72.601 L 1007.4 77.701 L 978 77.701 Z M 84.2 42.701 A 48.852 48.852 0 0 0 84.991 51.703 A 36.458 36.458 0 0 0 87.8 60.551 A 29.943 29.943 0 0 0 93.056 68.392 A 26.656 26.656 0 0 0 97.9 72.451 A 26.091 26.091 0 0 0 109.849 76.551 A 32.594 32.594 0 0 0 113 76.701 A 29.449 29.449 0 0 0 121.545 75.501 A 25.231 25.231 0 0 0 128.1 72.451 A 27.405 27.405 0 0 0 137.004 62.823 A 33.613 33.613 0 0 0 138.2 60.501 A 37.594 37.594 0 0 0 141.251 50.225 A 49.584 49.584 0 0 0 141.8 42.701 A 48.178 48.178 0 0 0 141.009 33.77 A 36.501 36.501 0 0 0 138.2 24.951 Q 134.6 17.301 128.1 13.001 Q 121.6 8.701 113 8.701 A 29.428 29.428 0 0 0 104.703 9.831 A 24.915 24.915 0 0 0 97.95 12.951 Q 91.5 17.201 87.85 24.851 Q 84.2 32.501 84.2 42.701 Z M 1122.9 42.701 A 48.852 48.852 0 0 0 1123.691 51.703 A 36.458 36.458 0 0 0 1126.5 60.551 A 29.943 29.943 0 0 0 1131.756 68.392 A 26.656 26.656 0 0 0 1136.6 72.451 A 26.091 26.091 0 0 0 1148.549 76.551 A 32.594 32.594 0 0 0 1151.7 76.701 A 29.449 29.449 0 0 0 1160.245 75.501 A 25.231 25.231 0 0 0 1166.8 72.451 A 27.405 27.405 0 0 0 1175.704 62.823 A 33.613 33.613 0 0 0 1176.9 60.501 A 37.594 37.594 0 0 0 1179.951 50.225 A 49.584 49.584 0 0 0 1180.5 42.701 A 48.178 48.178 0 0 0 1179.709 33.77 A 36.501 36.501 0 0 0 1176.9 24.951 Q 1173.3 17.301 1166.8 13.001 Q 1160.3 8.701 1151.7 8.701 A 29.428 29.428 0 0 0 1143.403 9.831 A 24.915 24.915 0 0 0 1136.65 12.951 Q 1130.2 17.201 1126.55 24.851 Q 1122.9 32.501 1122.9 42.701 Z M 441.374 33.621 A 68.143 68.143 0 0 0 440.8 42.701 A 78.328 78.328 0 0 0 440.803 43.358 Q 440.844 48.271 441.504 52.627 A 47.255 47.255 0 0 0 443.8 61.801 A 35.846 35.846 0 0 0 446.767 68.07 A 25.661 25.661 0 0 0 452.25 74.551 Q 457.7 79.101 464.9 79.101 Q 472.2 79.101 477.6 74.551 Q 480.722 71.92 483.042 68.07 A 36.263 36.263 0 0 0 486 61.801 A 41.079 41.079 0 0 0 486.202 61.237 Q 487.687 56.986 488.384 52.025 A 67.073 67.073 0 0 0 489 42.701 A 78.732 78.732 0 0 0 488.988 41.337 Q 488.813 31.191 486 23.551 A 36.112 36.112 0 0 0 483.042 17.315 A 25.868 25.868 0 0 0 477.6 10.851 Q 472.2 6.301 464.9 6.301 Q 457.7 6.301 452.25 10.851 Q 446.8 15.401 443.8 23.551 Q 442.113 28.135 441.374 33.621 Z M 521.4 77.701 L 514.6 77.701 L 514.6 13.501 L 500.1 20.301 L 499.3 18.701 L 519.4 6.301 L 521.4 6.301 L 521.4 77.701 Z M 448.2 42.701 A 97.468 97.468 0 0 0 448.608 51.942 Q 449.505 61.328 452.371 67.379 A 27.437 27.437 0 0 0 452.6 67.851 A 21.267 21.267 0 0 0 455.31 72.079 A 12.048 12.048 0 0 0 464.9 76.701 A 12.185 12.185 0 0 0 474.842 71.729 A 21.406 21.406 0 0 0 477.25 67.851 A 35.088 35.088 0 0 0 479.727 60.886 Q 481.6 53.398 481.6 42.701 A 97.468 97.468 0 0 0 481.192 33.46 Q 480.295 24.074 477.429 18.022 A 27.437 27.437 0 0 0 477.2 17.551 A 21.267 21.267 0 0 0 474.49 13.323 A 12.048 12.048 0 0 0 464.9 8.701 A 12.087 12.087 0 0 0 455.184 13.474 A 21.494 21.494 0 0 0 452.6 17.551 A 34.828 34.828 0 0 0 450.095 24.515 Q 448.322 31.521 448.208 41.335 A 117.302 117.302 0 0 0 448.2 42.701 Z M 285.8 77.701 L 279 77.701 L 279 7.701 L 285.8 7.701 L 285.8 77.701 Z M 952 77.701 L 945.2 77.701 L 945.2 7.701 L 952 7.701 L 952 77.701 Z M 650.9 45.901 L 654.9 23.701 Q 653.1 22.701 651.1 22.251 Q 649.1 21.801 647 21.801 Q 641.7 21.801 637.2 24.901 A 21.996 21.996 0 0 0 630.228 32.811 A 25.759 25.759 0 0 0 630.05 33.151 A 24.203 24.203 0 0 0 627.4 44.306 A 27.988 27.988 0 0 0 627.4 44.401 A 23.596 23.596 0 0 0 627.845 49.119 Q 628.442 52.041 629.837 54.327 A 13.953 13.953 0 0 0 630.6 55.451 A 11.152 11.152 0 0 0 633.514 58.202 A 9.828 9.828 0 0 0 638.9 59.701 A 9.683 9.683 0 0 0 646.1 56.589 A 12.992 12.992 0 0 0 646.55 56.101 A 15.785 15.785 0 0 0 648.969 52.3 Q 649.799 50.503 650.371 48.309 A 32.802 32.802 0 0 0 650.9 45.901 Z M 897.2 12.901 L 896.6 12.901 L 887.3 42.501 L 908.4 42.501 L 897.2 12.901 Z M 1019.1 73.501 Q 1019.1 71.201 1020.6 69.751 A 5.104 5.104 0 0 1 1024.223 68.301 A 6.621 6.621 0 0 1 1024.3 68.301 A 5.947 5.947 0 0 1 1026.059 68.549 A 4.758 4.758 0 0 1 1028.05 69.751 A 4.891 4.891 0 0 1 1029.461 72.769 A 6.685 6.685 0 0 1 1029.5 73.501 Q 1029.5 75.701 1028.05 77.201 A 4.855 4.855 0 0 1 1024.862 78.677 A 6.595 6.595 0 0 1 1024.3 78.701 A 5.319 5.319 0 0 1 1022.217 78.302 A 5.04 5.04 0 0 1 1020.6 77.201 A 5.017 5.017 0 0 1 1019.1 73.569 A 6.409 6.409 0 0 1 1019.1 73.501 Z"
            vector-effect="non-scaling-stroke" />
    </g>
</svg>